<svg xmlns="http://www.w3.org/2000/svg" xmlns:svg="http://www.w3.org/2000/svg" xmlns:xlink="http://www.w3.org/1999/xlink" id="svg20" width="24" height="24" version="1.1" viewBox="0 0 6.349 6.349"><metadata id="metadata24"/><defs id="defs12"><linearGradient id="b" x1="42519.285" x2="42575.336" y1="-7078.789" y2="-6966.931" gradientUnits="userSpaceOnUse" xlink:href="#a"/><linearGradient id="a"><stop id="stop5" offset="0" stop-color="#fff" stop-opacity="0"/><stop id="stop7" offset=".495" stop-color="#fff"/><stop id="stop9" offset="1" stop-color="#fff"/></linearGradient></defs><g id="g18" paint-order="stroke markers fill" transform="matrix(1.0403882,0,0,1.0403882,0.97276837,0.91571691)"><path style="font-variation-settings:normal;fill:url(#b)" id="path14" fill="url(#b)" stroke-miterlimit="2" stroke-width="3.678" d="m 42519.285,-7078.79 a 0.76,0.568 0 0 0 -0.738,0.675 l 33.586,125.888 a 87.182,87.182 0 0 0 39.381,-33.763 l -71.565,-92.52 a 0.76,0.568 0 0 0 -0.664,-0.28 z" opacity=".5" transform="matrix(0.02417,0,0,0.02417,-1025.69,172.241)"/><path id="path16" fill="#fff" stroke-width="2.015" d="m 2.109,0.137 a 2.108,2.108 0 0 0 -2.1,2.108 2.108,2.108 0 0 0 0.322,1.12 L 2.088,1.092 a 0.033,0.025 0 0 1 0.057,0 l 1.757,2.272 a 2.108,2.108 0 0 0 0.322,-1.12 2.108,2.108 0 0 0 -2.107,-2.106 2.108,2.108 0 0 0 -0.008,0 z"/></g></svg>